<svg xmlns="http://www.w3.org/2000/svg" xmlns:xlink="http://www.w3.org/1999/xlink" viewBox="0 0 265.67 102.84"><defs><style>.cls-1{fill:#fff8bb;}.cls-2{fill:url(#linear-gradient);}</style><linearGradient id="linear-gradient" x1="80.63" y1="37.8" x2="108.63" y2="-5.53" gradientUnits="userSpaceOnUse"><stop offset="0" stop-color="#36a893"/><stop offset="0.1" stop-color="#3faf94"/><stop offset="0.44" stop-color="#59c595"/><stop offset="0.76" stop-color="#68d197"/><stop offset="1" stop-color="#6ed697"/></linearGradient></defs><g id="Layer_2" data-name="Layer 2"><g id="Layer_1-2" data-name="Layer 1"><path class="cls-1" d="M50.67,47c0-1.35.63-1.8,1.62-1.89a62,62,0,0,1,6.48-.36c2.43,0,4.95.18,6.75.36,1.62.18,2.43,1,2.79,3,.09,1.17.18,2.7.18,4.5,0,30.42-12.15,44.55-19.08,49.68a2.78,2.78,0,0,1-1.62.45,2.17,2.17,0,0,1-1.35-.36A60.22,60.22,0,0,1,34.47,89c-.36-.63-.72-.81-1.17-.81a2,2,0,0,0-1.44.9C29.07,93.39,23,99.87,19,102.48a2.18,2.18,0,0,1-1.17.36,1.73,1.73,0,0,1-1.08-.36C5.85,94,0,78.54,0,53.88a39.44,39.44,0,0,1,.36-6c.27-1.71,1-2.52,2.61-2.7s4.32-.27,6.84-.27c2.79,0,5.4.09,7.11.27A1.63,1.63,0,0,1,18.63,47c0,1.17-1,8.46-1,16.47,0,6.75.81,13.5,3.06,17.82.18.63.54.9,1,.9a1.29,1.29,0,0,0,1.08-.9c3-6.39,4.14-13.14,4.14-23.4,0-4.05-.27-9.54-.27-10.89a1.55,1.55,0,0,1,1.44-1.71,47.46,47.46,0,0,1,6.66-.45,43.32,43.32,0,0,1,6.57.45c.81.18,1.44.54,1.44,1.53,0,2.34-.81,11.25-.81,17.82,0,7.56,1,11.88,3.78,16.65a1,1,0,0,0,.9.81,1.32,1.32,0,0,0,1.08-.81C50.49,76,51.21,68.1,51.21,60.63,51.21,54.69,50.67,48.66,50.67,47Z"/><path class="cls-1" d="M90.72,46.86c0-1.08-.72-1.71-2.07-1.8-2-.18-3.78-.18-5.58-.18s-3.51,0-5.49.18a2.42,2.42,0,0,0-2.52,2.25,199.75,199.75,0,0,0-2.25,31.41,177.91,177.91,0,0,0,1.08,20.52,2.27,2.27,0,0,0,2.25,2.34c2.25.18,4.77.27,7.38.27s5.13-.09,7.29-.27c.9-.09,1.71-.54,1.71-1.62,0-3.15-2.43-15.48-2.43-33.39C90.09,57,90.72,48.84,90.72,46.86Z"/><path class="cls-1" d="M116.91,63.69c0-16.56,1.62-32.31,1.62-33.84,0-1.26-.81-1.8-2.07-1.89-1.89-.09-4-.18-6-.18s-4.05.09-6.12.18a2.37,2.37,0,0,0-2.43,2.34A337.29,337.29,0,0,0,99.18,74c0,9,.36,17.64,1.08,25a2.56,2.56,0,0,0,2.52,2.61c2.16.18,4.77.18,7.29.18s5,0,7-.18a1.68,1.68,0,0,0,1.71-1.8C118.8,97.17,116.91,81.15,116.91,63.69Z"/><path class="cls-1" d="M143.73,101.58c-2.07.18-4.5.18-7,.18s-5.13,0-7.29-.18A2.56,2.56,0,0,1,126.9,99c-.72-7.38-1.08-16-1.08-25a337.29,337.29,0,0,1,2.7-43.65A2.37,2.37,0,0,1,131,28c2.07-.09,4.05-.18,6.12-.18s4.14.09,6,.18c1.26.09,2.07.63,2.07,1.89,0,1.53-1.62,17.28-1.62,33.84,0,17.46,1.89,33.48,1.89,36.09A1.68,1.68,0,0,1,143.73,101.58Z"/><path class="cls-1" d="M149.94,73.68c0-17.82,7.65-29.88,22.86-29.88s21.5,11.52,21.5,29.88c0,20.43-9.9,29.07-22.76,29.07C158.85,102.75,149.94,94.11,149.94,73.68Zm28.53-1.26c0-10.35-2.34-15.21-6.3-15.21-4.23,0-6.48,4.86-6.48,15.21s1.8,14.76,6.39,14.76S178.47,82.5,178.47,72.42Z"/><path class="cls-1" d="M247.85,47c0-1.35.63-1.8,1.62-1.89a62,62,0,0,1,6.48-.36c2.43,0,4.95.18,6.75.36,1.62.18,2.43,1,2.79,3,.09,1.17.18,2.7.18,4.5,0,30.42-12.15,44.55-19.08,49.68a2.78,2.78,0,0,1-1.62.45,2.17,2.17,0,0,1-1.35-.36,60.22,60.22,0,0,1-12-13.41c-.36-.63-.72-.81-1.17-.81a2,2,0,0,0-1.44.9c-2.79,4.32-8.9,10.8-12.86,13.41a2.2,2.2,0,0,1-1.17.36,1.71,1.71,0,0,1-1.08-.36C203,94,197.19,78.54,197.19,53.88a39.44,39.44,0,0,1,.36-6c.27-1.71,1-2.52,2.61-2.7s4.32-.27,6.84-.27c2.79,0,5.4.09,7.1.27a1.63,1.63,0,0,1,1.71,1.8c0,1.17-1,8.46-1,16.47,0,6.75.82,13.5,3.07,17.82.17.63.54.9,1,.9a1.27,1.27,0,0,0,1.08-.9c3-6.39,4.14-13.14,4.14-23.4,0-4.05-.27-9.54-.27-10.89a1.55,1.55,0,0,1,1.44-1.71,47.46,47.46,0,0,1,6.66-.45,43.32,43.32,0,0,1,6.57.45c.81.18,1.44.54,1.44,1.53,0,2.34-.81,11.25-.81,17.82,0,7.56,1,11.88,3.78,16.65a1,1,0,0,0,.9.81,1.32,1.32,0,0,0,1.08-.81c2.79-5.22,3.51-13.14,3.51-20.61C248.39,54.69,247.85,48.66,247.85,47Z"/><path class="cls-2" d="M81.44,39a32.76,32.76,0,0,1,1-18c5.48-15.36,21-20.39,23-21,.24,3.32.73,15.8-8,27A38.65,38.65,0,0,1,81.44,39Z"/></g></g></svg>